<svg width="23" height="22" viewBox="0 0 23 22" fill="none" xmlns="http://www.w3.org/2000/svg">
<g id="Group">
<path id="Vector" d="M5.27712 11.0009C5.27712 10.2379 5.40994 9.50649 5.64901 8.82533L1.96432 6.02252C1.19019 7.51884 0.75 9.20872 0.75 11.0009C0.75 12.7504 1.16932 14.4049 1.90929 15.8733L5.60727 13.0612C5.39286 12.4117 5.27712 11.7193 5.27712 11.0009Z" fill="#FBBC05"/>
<path id="Vector_2" d="M12.081 17.6748C9.05657 17.6748 6.49512 15.7393 5.60905 13.0612L1.90918 15.8733C3.74204 19.5043 7.55385 22 11.9633 22C14.8492 22 17.386 20.9299 19.2758 19.173L15.779 16.5153C14.762 17.2468 13.5021 17.6748 12.081 17.6748Z" fill="#34A853"/>
<path id="Vector_3" d="M12.0811 4.32518C13.7413 4.32518 15.1814 4.90957 16.2724 5.8792L18.7713 3.41883L19.3272 2.87167C17.4336 1.08874 14.876 0 11.9654 0C7.59765 0 3.81619 2.4492 1.96436 6.0225L5.64905 8.82345C6.56927 6.20675 9.10036 4.32518 12.0811 4.32518Z" fill="#EA4335"/>
<path id="Vector_4" d="M22.5624 8.91833H18.1738H11.8916V13.0928H18.1719C17.7545 14.4979 16.9196 15.6983 15.7793 16.5172L19.2762 19.1748C20.9629 17.6059 22.1279 15.4861 22.5605 13.0928C22.6838 12.4153 22.7502 11.7174 22.7502 11.0009C22.7502 10.2881 22.6838 9.59205 22.5624 8.91833Z" fill="#4285F3"/>
</g>
</svg>
