<svg width="235" height="61" viewBox="0 0 235 61" fill="none" xmlns="http://www.w3.org/2000/svg">
<g clip-path="url(#clip0_95_4080)">
<path d="M174.798 61.3578V11.1002C174.72 9.66546 174.947 8.23055 175.464 6.88872C175.98 5.5469 176.776 4.32823 177.798 3.31225C178.82 2.29628 180.046 1.50564 181.396 0.991921C182.746 0.478198 184.19 0.252933 185.633 0.330659H211.782V10.7413H188.667C188.415 10.7193 188.161 10.7525 187.923 10.8385C187.686 10.9246 187.469 11.0614 187.29 11.2393C187.111 11.4172 186.974 11.6319 186.887 11.8683C186.801 12.1048 186.767 12.3572 186.789 12.6078V61.3578H174.798Z" fill="#FFFFE2"/>
<path d="M222.436 61.3503V0.32312H234.355V61.3503H222.436Z" fill="#FFFFE2"/>
<path d="M0.676697 61.3581V11.1004C0.598498 9.6657 0.825137 8.23079 1.34199 6.88897C1.85885 5.54714 2.6543 4.32847 3.67647 3.3125C4.69864 2.29652 5.92452 1.50589 7.27452 0.992165C8.62453 0.478443 10.0684 0.253178 11.5119 0.330903H37.6968V10.7415H14.5094C14.2601 10.7251 14.0101 10.7623 13.7767 10.8508C13.5433 10.9394 13.3322 11.0769 13.1572 11.2542C12.9823 11.4315 12.8476 11.6443 12.7631 11.878C12.6786 12.1117 12.646 12.3607 12.6674 12.6081V61.3581H0.676697Z" fill="#FFFFE2"/>
<path d="M95.2314 61.3578V11.1002C95.1532 9.66546 95.3798 8.23055 95.8967 6.88872C96.4135 5.5469 97.209 4.32823 98.2312 3.31225C99.2533 2.29628 100.48 1.50564 101.83 0.991921C103.18 0.478198 104.623 0.252933 106.067 0.330659H164.324V10.7413H109.1C108.848 10.7193 108.594 10.7525 108.356 10.8385C108.119 10.9246 107.902 11.0614 107.723 11.2393C107.544 11.4172 107.407 11.6319 107.32 11.8683C107.234 12.1048 107.2 12.3572 107.223 12.6078V61.3578H95.2314Z" fill="#FFFFE2"/>
<path d="M164.251 25.6314H103.827V36.0419H164.251V25.6314Z" fill="#FFFFE2"/>
<path d="M59.765 36.6522V30.9445H85.0471V20.5339H59.765V12.7081C59.743 12.4574 59.7763 12.205 59.8629 11.9686C59.9495 11.7321 60.0873 11.5174 60.2663 11.3395C60.4453 11.1616 60.6611 11.0248 60.899 10.9388C61.1369 10.8527 61.391 10.8194 61.6432 10.8413H84.7578V0.32309H58.609C57.1656 0.245365 55.7221 0.47063 54.3721 0.984352C53.0221 1.49807 51.7958 2.28871 50.7736 3.30469C49.7515 4.32066 48.956 5.53933 48.4392 6.88116C47.9223 8.22298 47.6957 9.65789 47.7739 11.0926V50.5808C47.6957 52.0155 47.9223 53.4506 48.4392 54.7924C48.956 56.1343 49.7515 57.3527 50.7736 58.3687C51.7958 59.3847 53.0221 60.1753 54.3721 60.689C55.7221 61.2027 57.1656 61.428 58.609 61.3503H84.7578V50.9037H61.6432C61.391 50.9257 61.1369 50.8925 60.899 50.8065C60.6611 50.7204 60.4453 50.5838 60.2663 50.4059C60.0873 50.228 59.9495 50.0131 59.8629 49.7767C59.7763 49.5402 59.743 49.2876 59.765 49.0369V36.6522Z" fill="#FFFFE2"/>
</g>
<defs>
<clipPath id="clip0_95_4080">
<rect width="234" height="61" fill="white" transform="translate(0.75)"/>
</clipPath>
</defs>
</svg>
